<svg width="70" height="70" viewBox="0 0 70 70" fill="none" xmlns="http://www.w3.org/2000/svg">
<circle cx="35" cy="35" r="35" fill="#A46254"/>
<path d="M23.6711 52.4147C23.4148 52.6398 23.1001 52.7864 22.7641 52.8372C22.4281 52.8881 22.0846 52.8411 21.7742 52.7018C21.4637 52.5624 21.199 52.3366 21.0112 52.0507C20.8234 51.7648 20.7203 51.4308 20.714 51.0878V47.0438C19.7668 47.0438 18.8584 46.6639 18.1886 45.9877C17.5189 45.3115 17.1426 44.3943 17.1426 43.438V30.8175C17.1426 29.8612 17.5189 28.944 18.1886 28.2678C18.8584 27.5916 19.7668 27.2117 20.714 27.2117H40.3569C41.3041 27.2117 42.2125 27.5916 42.8822 28.2678C43.552 28.944 43.9283 29.8612 43.9283 30.8175V43.438C43.9283 44.3943 43.552 45.3115 42.8822 45.9877C42.2125 46.6639 41.3041 47.0438 40.3569 47.0438H31.4337L23.6711 52.4147ZM45.714 38.0599C45.7083 38.2816 45.7083 38.5034 45.714 38.7251V38.0599ZM45.714 38.0599C45.7229 37.867 45.7247 35.451 45.7212 30.8139C45.7197 29.3804 45.1547 28.006 44.1502 26.9928C43.1457 25.9797 41.7839 25.4106 40.364 25.4106H26.0711V23.6058C26.0711 22.6495 26.4474 21.7324 27.1172 21.0561C27.787 20.3799 28.6954 20 29.6426 20H49.2854C50.2326 20 51.141 20.3799 51.8108 21.0561C52.4806 21.7324 52.8569 22.6495 52.8569 23.6058V36.2263C52.8569 37.1826 52.4806 38.0998 51.8108 38.776C51.141 39.4522 50.2326 39.8321 49.2854 39.8321V43.8761C49.2791 44.2191 49.176 44.5531 48.9882 44.839C48.8004 45.1249 48.5358 45.3507 48.2253 45.4901C47.9148 45.6294 47.5714 45.6764 47.2354 45.6255C46.8994 45.5747 46.5847 45.4281 46.3283 45.203L45.714 44.7775V38.0599Z" fill="white"/>
</svg>
