<svg width="39" height="39" viewBox="0 0 39 39" fill="none" xmlns="http://www.w3.org/2000/svg">
<path d="M0.829066 19.3305C0.828156 22.6182 1.68718 25.8283 3.32061 28.6577L0.672852 38.3251L10.5662 35.7311C13.3026 37.2207 16.3685 38.0013 19.4841 38.0015H19.4923C29.7774 38.0015 38.1497 29.6322 38.1541 19.3452C38.1561 14.3605 36.2166 9.67317 32.6928 6.14667C29.1697 2.62048 24.484 0.677507 19.4915 0.675232C9.20518 0.675232 0.833464 9.04406 0.829217 19.3305" fill="url(#paint0_linear_736_1035)"/>
<path d="M0.162281 19.3244C0.161219 22.7304 1.05103 26.0553 2.7427 28.9861L0 39L10.2481 36.313C13.0718 37.8525 16.251 38.6642 19.486 38.6654H19.4943C30.1484 38.6654 38.8215 29.9951 38.826 19.3399C38.8279 14.1761 36.8186 9.32022 33.169 5.66739C29.5189 2.01501 24.6656 0.0021233 19.4943 0C8.83838 0 0.166527 8.66913 0.162281 19.3244ZM6.2654 28.4813L5.88275 27.8739C4.2742 25.3162 3.42518 22.3606 3.4264 19.3257C3.42973 10.4692 10.6374 3.26381 19.5004 3.26381C23.7925 3.26563 27.8261 4.93879 30.86 7.97451C33.8938 11.0105 35.5631 15.0463 35.5621 19.3387C35.5581 28.1951 28.3503 35.4015 19.4943 35.4015H19.4879C16.6043 35.3999 13.7763 34.6255 11.3099 33.1621L10.723 32.8141L4.64153 34.4085L6.2654 28.4813Z" fill="url(#paint1_linear_736_1035)"/>
<path d="M14.6622 11.2456C14.3003 10.4413 13.9195 10.4251 13.5753 10.411C13.2936 10.3988 12.9714 10.3997 12.6496 10.3997C12.3274 10.3997 11.8041 10.5209 11.3617 11.004C10.9188 11.4875 9.6709 12.6559 9.6709 15.0323C9.6709 17.4089 11.4018 19.7055 11.6431 20.0281C11.8847 20.3501 14.9848 25.3829 19.8944 27.3191C23.9748 28.9281 24.8052 28.6081 25.6907 28.5274C26.5765 28.447 28.5487 27.3593 28.9511 26.2314C29.3537 25.1036 29.3537 24.1369 29.233 23.9349C29.1123 23.7336 28.7901 23.6127 28.3071 23.3713C27.8239 23.1297 25.4491 21.9611 25.0064 21.7999C24.5636 21.6388 24.2416 21.5584 23.9194 22.0421C23.5973 22.525 22.6723 23.6127 22.3904 23.9349C22.1087 24.2578 21.8268 24.2979 21.3439 24.0563C20.8605 23.814 19.3049 23.3045 17.4593 21.6591C16.0234 20.3788 15.0539 18.7977 14.7721 18.314C14.4903 17.8311 14.7419 17.5694 14.9842 17.3287C15.2012 17.1122 15.4674 16.7646 15.7091 16.4827C15.9499 16.2006 16.0303 15.9993 16.1914 15.6772C16.3526 15.3548 16.2719 15.0727 16.1514 14.8311C16.0303 14.5895 15.0917 12.2006 14.6622 11.2456Z" fill="white"/>
<defs>
<linearGradient id="paint0_linear_736_1035" x1="1874.73" y1="3765.66" x2="1874.73" y2="0.675232" gradientUnits="userSpaceOnUse">
<stop stop-color="#1FAF38"/>
<stop offset="1" stop-color="#60D669"/>
</linearGradient>
<linearGradient id="paint1_linear_736_1035" x1="1941.3" y1="3900" x2="1941.3" y2="0" gradientUnits="userSpaceOnUse">
<stop stop-color="#F9F9F9"/>
<stop offset="1" stop-color="white"/>
</linearGradient>
</defs>
</svg>
